<?xml version="1.0" standalone="no"?>
<!DOCTYPE svg PUBLIC "-//W3C//DTD SVG 20010904//EN"
 "http://www.w3.org/TR/2001/REC-SVG-20010904/DTD/svg10.dtd">
<svg xmlns="http://www.w3.org/2000/svg" fill="#73f2c1" version="1.0" width="250pt" height="50pt" viewBox="350 200 2500 300" preserveAspectRatio="xMidYMid meet">
        <g transform="translate(0,1206) scale(0.1,-0.1)" stroke="none">
        <path d="M6745 10715 c-22 -8 -59 -15 -81 -15 -23 0 -61 -7 -84 -15 -23 -8 -54 -15 -69 -15 -14 0 -35 -7 -45 -15 -11 -8 -32 -15 -46 -15 -14 0 -35 -7 -46 -15 -10 -8 -31 -15 -45 -15 -14 0 -34 -7 -45 -15 -10 -8 -26 -15 -35 -15 -9 0 -22 -7 -29 -15 -7 -8 -20 -15 -30 -15 -9 0 -37 -11 -61 -25 -24 -14 -51 -28 -59 -31 -26 -12 -125 -78 -128 -86 -2 -5 -8 -8 -14 -8 -12 0 -123 -84 -164 -124 -17 -17 -42 -41 -55 -52 -53 -48 -186 -208 -202 -244 -4 -8 -16 -28 -27 -45 -38 -60 -120 -235 -120 -258 0 -9 -6 -28 -14 -44 -22 -43 -46 -136 -46 -176 0 -20 -5 -48 -11 -63 -5 -16 -12 -131 -14 -256 -3 -186 -7 -232 -19 -250 -9 -12 -16 -28 -16 -36 0 -15 -61 -101 -73 -102 -4 0 -18 -11 -30 -24 -12 -12 -51 -47 -87 -77 -87 -71 -139 -119 -232 -213 -115 -118 -146 -189 -110 -256 20 -37 100 -88 138 -89 12 -1 27 -8 34 -16 7 -8 18 -15 24 -15 6 -1 24 -12 41 -25 24 -20 30 -32 30 -64 0 -37 -6 -46 -73 -108 -39 -38 -72 -76 -72 -86 0 -24 28 -77 40 -77 6 0 10 -4 10 -10 0 -5 9 -19 20 -30 25 -25 25 -67 0 -105 -34 -52 -26 -107 32 -195 20 -32 38 -203 38 -366 0 -96 3 -124 15 -134 8 -7 15 -18 15 -25 0 -7 21 -25 47 -40 44 -26 51 -27 132 -22 47 4 102 11 121 17 19 5 123 10 231 11 215 1 241 -4 369 -65 106 -50 206 -137 257 -224 l25 -42 881 2 c881 3 882 3 885 23 2 12 -12 41 -30 65 -32 44 -80 135 -111 215 -29 71 -41 215 -27 302 6 43 18 92 25 108 38 90 85 176 123 227 23 31 42 60 42 64 0 12 264 270 335 326 199 158 255 206 310 263 70 72 175 217 206 283 12 26 25 54 30 62 10 16 13 25 33 80 34 92 39 108 47 155 5 28 13 70 18 95 13 59 13 432 0 490 -5 25 -12 63 -15 85 -3 22 -12 60 -19 85 -45 148 -56 182 -63 198 -5 9 -17 35 -27 57 -9 22 -21 47 -26 55 -5 8 -13 25 -18 37 -6 11 -15 24 -20 28 -6 3 -11 13 -11 21 0 16 -87 146 -149 224 -78 97 -224 232 -327 303 -68 46 -97 56 -109 37 -6 -9 11 -26 126 -128 69 -60 219 -225 219 -239 0 -3 14 -22 30 -43 17 -21 30 -40 30 -43 0 -3 14 -26 30 -50 17 -25 30 -52 30 -60 0 -9 4 -18 9 -21 8 -6 29 -46 65 -131 7 -16 21 -47 30 -68 9 -21 16 -47 16 -58 0 -11 5 -30 11 -41 19 -35 38 -135 54 -279 12 -118 13 -154 0 -280 -8 -79 -19 -162 -25 -184 -34 -120 -44 -153 -57 -182 -7 -17 -13 -34 -13 -38 0 -3 -13 -33 -30 -67 -16 -33 -30 -66 -30 -73 0 -7 -4 -15 -8 -17 -4 -1 -26 -32 -47 -68 -75 -125 -195 -262 -310 -355 -28 -22 -51 -43 -53 -47 -2 -5 -8 -8 -14 -8 -6 0 -27 -12 -47 -27 -43 -34 -69 -50 -96 -62 -11 -5 -36 -20 -55 -33 -19 -13 -42 -27 -50 -31 -24 -12 -50 -29 -128 -82 -40 -28 -82 -55 -93 -61 -28 -16 -169 -156 -180 -179 -5 -11 -18 -33 -29 -50 -11 -16 -22 -37 -26 -45 -3 -8 -10 -23 -15 -33 -5 -10 -14 -37 -19 -60 -5 -23 -13 -60 -19 -82 -15 -57 -13 -166 3 -244 8 -36 19 -86 25 -111 5 -25 16 -63 24 -84 20 -54 12 -80 -22 -70 -14 4 -197 9 -406 11 -209 1 -387 4 -395 6 -8 2 -25 25 -38 50 -13 26 -28 47 -33 47 -5 0 -9 6 -9 14 0 42 -218 196 -278 196 -10 0 -24 6 -30 13 -18 17 -304 22 -402 7 -184 -28 -198 -27 -249 19 -37 33 -35 22 -57 370 -7 103 -10 119 -36 157 -34 50 -35 89 -7 144 26 49 20 82 -24 128 -23 23 -31 41 -31 67 0 31 8 43 62 91 51 47 62 62 62 88 0 45 -45 89 -134 132 -94 45 -111 64 -110 118 1 33 10 55 43 99 45 62 143 162 262 268 99 89 149 140 149 152 0 6 6 18 13 26 27 32 39 128 43 341 3 156 8 232 20 275 33 127 47 171 60 197 8 14 14 35 14 46 0 12 4 23 9 26 5 3 25 38 46 78 20 39 49 91 66 115 16 24 29 46 29 49 0 21 208 224 297 291 88 65 97 71 171 109 28 15 52 31 52 36 0 4 9 8 19 8 11 0 32 6 48 14 26 13 64 29 138 61 31 13 102 30 191 44 28 5 61 14 72 20 33 18 480 14 512 -4 14 -8 40 -14 58 -15 18 0 49 -7 69 -15 19 -8 48 -15 62 -15 15 0 36 -7 47 -15 10 -8 27 -15 36 -15 10 0 43 -13 73 -30 82 -45 151 -36 98 13 -17 14 -162 89 -243 124 -19 8 -43 19 -52 24 -27 14 -136 49 -152 49 -8 0 -27 6 -43 14 -37 18 -159 46 -203 46 -19 0 -53 7 -75 15 -31 11 -97 14 -285 14 -188 0 -254 -3 -285 -14z m39 -80 c18 -12 29 -13 51 -5 16 6 41 8 56 5 15 -4 30 -1 34 5 6 10 63 7 125 -7 22 -5 20 -7 -20 -17 -25 -7 -57 -9 -72 -5 -21 6 -30 3 -41 -15 -9 -13 -34 -27 -66 -35 -28 -7 -61 -21 -74 -32 -14 -10 -43 -21 -65 -25 -26 -4 -56 -19 -81 -40 -21 -19 -46 -34 -55 -34 -9 0 -19 -7 -22 -15 -4 -8 -15 -15 -27 -15 -11 0 -42 -18 -67 -39 -26 -22 -64 -46 -84 -55 -43 -18 -106 -81 -106 -107 0 -9 -6 -16 -13 -15 -18 1 -97 -63 -97 -80 0 -7 -20 -29 -44 -48 -27 -23 -50 -53 -60 -80 -9 -24 -25 -46 -34 -48 -11 -3 -23 -24 -32 -57 -8 -29 -22 -57 -32 -62 -10 -5 -18 -17 -18 -25 0 -9 -7 -22 -15 -30 -8 -8 -17 -31 -20 -52 -4 -20 -12 -48 -19 -62 -8 -14 -16 -46 -20 -71 -4 -25 -16 -70 -27 -99 -15 -40 -17 -55 -8 -66 8 -10 8 -18 1 -27 -6 -7 -13 -71 -16 -142 -3 -72 -6 -137 -6 -145 -6 -123 -14 -174 -32 -192 -10 -10 -16 -23 -13 -28 8 -13 -103 -150 -120 -150 -8 0 -16 -8 -19 -17 -4 -10 -25 -31 -47 -48 -37 -28 -153 -144 -190 -191 -30 -39 -61 -113 -54 -133 4 -14 0 -23 -15 -31 -23 -12 -20 -42 6 -70 8 -8 28 -33 44 -55 16 -22 33 -43 37 -47 5 -4 27 -24 51 -44 31 -26 42 -44 42 -64 0 -30 -36 -108 -59 -126 -11 -8 -11 -18 -3 -45 18 -55 26 -91 28 -134 1 -22 6 -56 9 -77 4 -20 3 -44 -3 -54 -7 -13 -5 -24 9 -44 11 -14 21 -46 22 -71 2 -24 7 -51 11 -58 9 -15 12 -43 21 -233 6 -133 29 -218 60 -218 24 0 18 -47 -7 -64 -16 -11 -46 -16 -98 -16 -41 0 -129 -5 -196 -11 -109 -11 -125 -10 -168 6 -26 10 -51 25 -55 34 -9 15 -26 204 -30 326 -1 33 -7 65 -13 72 -6 7 -8 22 -5 33 3 13 -2 25 -14 33 -17 12 -19 30 -22 160 -3 114 -8 151 -21 171 -30 46 -12 115 41 161 6 5 14 37 17 70 6 53 3 66 -22 115 -20 37 -36 56 -51 58 -11 2 -21 10 -21 18 0 8 -10 18 -22 23 -13 5 -40 25 -60 45 -31 30 -38 44 -38 76 0 29 4 40 15 40 8 0 15 7 15 15 0 16 74 95 89 95 6 0 17 13 26 30 8 16 27 33 40 36 14 3 25 12 25 20 0 15 12 28 89 94 134 115 181 168 181 206 0 12 7 27 15 34 8 7 15 25 15 40 0 15 9 39 21 54 21 27 22 42 15 256 -1 30 1 60 4 65 3 6 6 28 7 50 7 142 53 333 89 376 8 8 14 22 14 30 0 8 7 25 16 37 10 14 14 33 10 47 -5 18 -1 27 15 35 12 7 18 17 15 27 -4 9 1 17 14 20 11 3 20 11 20 18 0 7 20 39 45 71 25 31 45 65 45 74 0 21 20 40 42 40 10 0 18 7 18 14 0 22 111 133 141 139 14 4 40 25 58 47 17 22 41 40 51 40 11 0 24 9 30 20 8 15 17 19 31 15 15 -5 19 -2 19 14 0 13 6 21 18 21 10 0 28 7 41 16 38 27 178 94 198 95 10 0 32 9 48 19 48 31 95 50 139 56 23 4 52 13 65 21 15 10 36 13 60 10 25 -4 52 1 91 17 30 13 56 24 58 25 1 0 13 -6 26 -14z m1119 -3092 c8 -7 -29 -72 -54 -93 -23 -20 -59 -86 -59 -110 0 -10 -13 -38 -29 -62 -30 -45 -46 -91 -42 -121 1 -10 -2 -24 -7 -30 -17 -22 -20 -120 -9 -232 7 -60 15 -115 19 -120 3 -6 9 -28 14 -50 4 -22 15 -51 25 -64 22 -27 25 -74 7 -89 -23 -18 -118 -20 -162 -4 -58 22 -69 32 -55 48 6 8 20 14 30 14 16 0 18 5 12 28 -4 15 -7 36 -6 47 0 11 -7 58 -15 105 -11 55 -16 135 -15 225 1 122 4 146 23 185 39 81 57 109 89 137 17 15 31 34 31 43 1 31 145 144 191 149 3 1 9 -2 12 -6z m-1536 -695 c45 -23 80 -45 78 -49 -6 -9 20 -31 28 -23 11 11 67 -49 62 -67 -4 -12 1 -19 14 -24 11 -3 23 -15 26 -25 3 -10 14 -22 25 -25 14 -4 40 -50 40 -70 0 -10 -97 -17 -210 -16 -132 2 -136 3 -177 32 -23 16 -46 29 -51 29 -5 0 -32 21 -60 48 -108 102 -142 131 -164 137 -13 4 -31 14 -41 23 -9 8 -27 20 -39 26 -35 18 -33 35 4 35 18 0 60 4 93 10 33 5 112 7 175 5 111 -4 118 -6 197 -46z"></path>
        <path d="M6958 10381 c-18 -5 -92 -54 -96 -63 -2 -5 -9 -8 -16 -8 -6 0 -34 -20 -63 -45 -53 -46 -79 -54 -113 -33 -23 15 -82 -3 -117 -35 -26 -23 -38 -87 -25 -132 17 -60 130 -109 162 -70 7 8 18 15 25 15 21 0 50 52 55 100 4 35 10 45 27 50 12 3 34 16 50 30 15 13 50 39 77 57 l48 33 276 0 275 0 236 -232 c130 -128 237 -236 239 -240 5 -10 -27 -36 -138 -113 -55 -38 -132 -92 -170 -120 -38 -27 -94 -68 -125 -90 -32 -22 -104 -75 -162 -117 -57 -43 -107 -78 -112 -78 -4 0 -20 -13 -36 -30 -33 -34 -51 -37 -93 -13 -29 16 -32 16 -69 -2 -60 -31 -82 -62 -83 -118 0 -58 26 -97 81 -122 33 -15 43 -16 70 -5 60 25 89 58 89 100 0 36 5 43 59 84 33 25 63 46 66 46 4 0 21 12 39 26 50 41 205 154 211 154 3 0 11 5 18 10 7 6 46 35 87 65 41 30 81 59 87 65 7 6 34 25 60 42 27 18 74 51 105 75 31 24 59 43 63 43 3 0 11 4 18 10 7 5 27 21 45 36 17 14 32 30 32 36 0 17 -578 588 -597 589 -90 3 -576 3 -585 0z m-297 -241 c36 -20 19 -60 -26 -60 -17 0 -27 27 -20 51 7 22 18 23 46 9z m497 -982 c28 -28 1 -75 -38 -63 -25 8 -27 50 -2 64 22 13 26 13 40 -1z"></path>
        <path d="M7043 10068 c-22 -13 -136 -91 -258 -177 -233 -164 -232 -164 -270 -151 -46 15 -107 4 -133 -23 -53 -56 -50 -125 6 -181 31 -31 42 -36 84 -36 34 0 50 5 54 15 4 8 11 15 16 15 18 0 47 44 48 71 0 38 45 84 102 105 9 3 19 12 22 20 3 8 10 14 17 14 6 0 28 12 48 28 20 15 43 32 52 37 9 6 45 30 79 55 34 25 70 50 79 55 9 6 20 16 24 23 4 6 13 12 19 12 6 0 19 6 27 14 16 14 118 21 251 17 64 -2 66 -3 123 -55 70 -64 72 -86 12 -122 -22 -13 -47 -27 -55 -31 -8 -3 -31 -19 -51 -35 -20 -15 -40 -28 -43 -28 -4 0 -31 -18 -61 -41 l-54 -40 -46 15 c-75 26 -142 -4 -165 -74 -38 -115 108 -213 197 -131 17 16 37 47 44 70 10 35 23 49 83 89 39 26 79 50 89 54 9 4 17 12 17 18 0 5 5 10 11 10 6 0 35 17 66 38 85 57 106 71 131 82 12 5 23 14 24 20 0 5 1 14 2 19 1 5 -48 60 -109 123 l-110 113 -175 3 c-127 2 -181 -1 -197 -10z m-537 -422 c8 -22 -14 -56 -36 -56 -23 0 -43 32 -34 54 8 20 63 21 70 2z m608 -89 c16 -11 17 -17 7 -36 -23 -43 -75 -11 -57 35 7 18 27 18 50 1z"></path>
        <path d="M8178 9385 c-47 -31 -58 -52 -58 -108 0 -40 5 -49 41 -82 l41 -37 0 -283 c0 -223 -3 -288 -13 -302 -8 -10 -45 -43 -84 -73 -38 -30 -73 -58 -76 -63 -4 -5 -15 -14 -27 -20 -11 -7 -52 -39 -92 -72 -40 -33 -95 -77 -121 -98 -27 -20 -65 -53 -86 -72 -44 -41 -73 -51 -101 -36 -27 14 -103 -19 -127 -56 -43 -65 -9 -158 65 -183 48 -16 81 -8 122 29 26 24 33 38 38 82 5 50 8 56 57 93 145 115 176 140 200 162 14 13 30 24 34 24 5 0 16 8 26 18 19 19 92 79 151 124 19 16 58 47 84 70 l49 42 -2 309 -2 308 30 32 c58 62 54 142 -10 188 -49 35 -89 36 -139 4z m96 -90 c9 -35 1 -45 -35 -45 -25 0 -29 4 -29 29 0 46 53 58 64 16z m-659 -1265 c13 -40 -38 -68 -64 -36 -9 11 -10 20 -1 35 14 28 56 28 65 1z"></path>
        <path d="M6600 9293 c-34 -7 -56 -28 -82 -80 -18 -36 -20 -47 -10 -61 7 -9 16 -26 21 -38 5 -11 21 -28 35 -37 l26 -17 0 -755 0 -754 -24 -18 c-24 -19 -68 -91 -62 -102 1 -3 10 -22 19 -41 46 -102 166 -108 229 -12 31 47 24 87 -27 141 l-45 48 0 739 0 739 45 43 c39 38 45 49 45 85 0 80 -82 137 -170 120z m64 -89 c22 -9 20 -51 -3 -64 -26 -14 -48 -4 -53 25 -8 37 17 54 56 39z m-3 -1734 c41 -22 8 -91 -35 -74 -22 8 -31 51 -16 69 15 18 25 19 51 5z"></path>
        <path d="M7834 9292 c-47 -5 -78 -44 -79 -97 -1 -53 7 -45 -216 -208 -22 -15 -53 -41 -71 -57 -18 -17 -38 -30 -44 -30 -6 0 -18 -7 -25 -16 -7 -9 -108 -88 -224 -175 -115 -87 -232 -176 -260 -197 l-50 -38 -2 -682 -2 -681 -33 -30 c-30 -27 -33 -34 -33 -88 0 -63 14 -86 68 -110 60 -27 114 -8 155 54 34 53 29 84 -23 137 l-45 47 0 648 0 649 53 43 c28 24 76 60 104 79 29 19 53 38 53 42 0 3 17 17 38 29 20 13 40 27 43 31 3 5 27 23 52 41 64 45 440 331 458 349 28 29 58 39 78 28 31 -16 81 -12 109 11 70 55 81 122 29 181 -33 37 -67 48 -133 40z m60 -88 c25 -9 20 -53 -6 -63 -28 -11 -48 3 -48 34 0 34 17 43 54 29z m-963 -2174 c25 -14 24 -52 -2 -69 -19 -11 -24 -10 -42 8 -19 18 -19 23 -7 46 15 28 22 30 51 15z"></path>
        <path d="M6304 9026 c-64 -28 -74 -44 -74 -116 0 -63 2 -68 35 -97 l34 -31 1 -750 0 -751 -35 -27 c-33 -25 -35 -30 -35 -85 0 -62 8 -76 62 -111 45 -30 92 -23 138 18 37 33 40 41 40 87 0 46 -4 55 -40 92 l-40 41 0 738 c0 584 2 742 12 754 7 9 25 27 41 40 23 20 27 31 27 77 0 61 -24 99 -76 121 -41 17 -50 17 -90 0z m79 -100 c12 -30 -4 -56 -34 -56 -33 0 -43 13 -35 46 5 18 13 24 35 24 16 0 31 -6 34 -14z m2 -1736 c3 -11 3 -29 0 -41 -10 -30 -69 -23 -73 9 -6 37 5 52 37 52 21 0 32 -6 36 -20z"></path>
        <path d="M7762 8867 c-27 -28 -32 -40 -32 -83 0 -50 0 -50 -62 -96 -35 -26 -76 -58 -93 -72 -16 -14 -88 -71 -160 -128 -71 -56 -132 -105 -135 -109 -3 -4 -21 -17 -40 -30 -19 -13 -52 -40 -73 -59 l-39 -35 4 -312 3 -312 -35 -30 c-33 -27 -35 -33 -34 -85 0 -47 4 -60 29 -86 25 -26 35 -30 85 -30 52 0 60 3 93 35 31 30 37 43 37 78 0 36 -7 50 -45 92 -32 35 -44 56 -40 70 2 11 5 136 5 279 l0 258 33 32 c31 30 108 92 178 146 18 14 40 33 48 43 9 9 21 17 27 17 6 0 18 7 25 16 8 9 50 44 94 77 44 33 93 73 109 89 27 25 37 28 96 28 62 0 68 2 98 33 28 29 32 39 32 91 0 50 -4 61 -29 87 -26 25 -37 29 -88 29 -54 0 -62 -3 -91 -33z m126 -83 c4 -27 -21 -47 -48 -39 -14 4 -20 15 -20 36 0 28 2 30 33 27 24 -2 33 -8 35 -24z m-684 -1237 c11 -8 17 -23 14 -38 -2 -19 -9 -24 -33 -24 -26 0 -30 4 -33 29 -5 41 20 56 52 33z"></path>
        <path d="M5966 8529 c-29 -34 -36 -49 -36 -83 1 -39 26 -86 47 -86 4 0 14 -10 22 -22 10 -16 14 -91 16 -323 l3 -302 -44 -43 c-37 -36 -44 -49 -44 -82 0 -46 20 -80 65 -108 67 -41 140 -18 179 58 28 54 18 96 -35 142 l-29 25 -1 310 0 310 28 24 c69 59 70 123 5 194 -22 23 -33 27 -83 27 -54 0 -58 -2 -93 -41z m124 -53 c6 -8 10 -25 8 -38 -2 -19 -9 -23 -38 -23 -30 0 -36 4 -38 24 -6 40 43 66 68 37z m8 -888 c4 -32 -22 -50 -55 -37 -15 5 -23 17 -23 32 0 32 9 39 45 35 24 -2 31 -8 33 -30z"></path>
        </g>
        
       <text fill="#73f2c1" x="900" y="550" font-family="Verdana" font-size="200">ScienceEduPro</text>
        </svg>